<?xml version="1.0" standalone="no"?>
<!DOCTYPE svg PUBLIC "-//W3C//DTD SVG 20010904//EN"
 "http://www.w3.org/TR/2001/REC-SVG-20010904/DTD/svg10.dtd">
<svg version="1.0" xmlns="http://www.w3.org/2000/svg"
 width="366.000000pt" height="366.000000pt" viewBox="0 0 366.000000 366.000000"
 preserveAspectRatio="xMidYMid meet">
<metadata>
Created by potrace 1.11, written by Peter Selinger 2001-2013
</metadata>
<g transform="translate(0.000000,366.000000) scale(0.100000,-0.100000)"
fill="#000000" stroke="none">
<path d="M1817 3598 c-20 -24 -52 -74 -71 -113 -104 -209 -73 -468 75 -635
l39 -45 45 49 c92 102 137 239 131 396 -6 141 -50 255 -137 354 -17 20 -34 36
-38 36 -4 0 -24 -19 -44 -42z"/>
<path d="M1278 3394 c-3 -3 -4 -30 -1 -61 8 -111 71 -254 150 -339 61 -65 168
-135 235 -154 l27 -8 -34 61 c-56 103 -77 187 -80 316 l-3 115 -46 23 c-69 35
-230 66 -248 47z"/>
<path d="M2348 3395 c-2 -2 -16 -5 -33 -8 -31 -5 -131 -41 -152 -55 -8 -5 -12
-44 -14 -112 -2 -125 -24 -214 -79 -318 -44 -84 -43 -85 74 -24 172 90 305
298 306 479 l0 43 -50 -1 c-27 -1 -51 -3 -52 -4z"/>
<path d="M1330 2760 c-236 -45 -393 -243 -427 -540 -51 -453 187 -983 570
-1268 177 -131 175 -130 176 -34 l1 77 -71 49 c-326 229 -554 682 -543 1077 7
237 95 409 242 477 92 42 234 37 366 -12 37 -14 98 -42 136 -61 l68 -36 71 35
c258 130 473 123 603 -19 213 -235 172 -766 -90 -1158 -106 -160 -264 -304
-424 -387 -42 -22 -79 -40 -82 -40 -3 0 -6 87 -6 194 l0 193 51 31 c40 25 55
43 76 88 22 49 26 70 25 148 -1 104 -12 228 -37 441 -2 17 -7 68 -11 115 -6
79 -18 110 -36 92 -4 -4 -9 -143 -10 -307 l-3 -300 -25 0 -25 0 -1 296 c0 163
-4 301 -8 307 -5 8 -13 9 -24 3 -15 -8 -17 -36 -16 -301 1 -244 -1 -294 -13
-306 -12 -11 -18 -12 -29 -3 -11 9 -14 67 -14 309 0 163 -3 299 -6 302 -3 3
-14 4 -24 1 -19 -5 -19 -18 -19 -301 0 -242 -2 -298 -14 -309 -12 -12 -16 -12
-28 0 -12 11 -14 68 -14 310 0 274 -1 296 -17 301 -10 2 -18 1 -19 -2 -1 -4
-3 -25 -4 -47 -7 -78 -27 -280 -30 -304 -10 -60 -20 -225 -19 -311 1 -76 5
-103 22 -136 22 -44 71 -90 109 -105 l23 -9 0 -295 c0 -162 3 -295 6 -295 19
0 191 67 257 100 128 65 216 129 333 245 222 222 369 514 411 818 9 67 10 278
1 342 -38 276 -197 472 -422 520 -128 27 -290 3 -447 -67 l-65 -29 -81 35
c-133 57 -199 73 -318 80 -44 3 -100 1 -125 -4z"/>
<path d="M420 465 c0 -118 1 -125 20 -125 21 0 24 12 20 78 l-2 32 67 0 67 0
-2 -37 c-3 -65 -1 -73 20 -73 19 0 20 7 20 126 0 124 0 125 -22 122 -20 -3
-22 -8 -19 -55 l2 -53 -66 0 -67 0 2 43 c3 63 2 67 -20 67 -19 0 -20 -7 -20
-125z"/>
<path d="M730 465 l0 -125 80 0 c64 0 80 3 80 15 0 12 -13 15 -60 15 l-60 0 0
40 0 40 44 0 c30 0 46 5 50 15 4 12 -4 15 -44 15 l-50 0 0 40 0 40 60 0 c47 0
60 3 60 15 0 12 -16 15 -80 15 l-80 0 0 -125z"/>
<path d="M1020 568 c-4 -13 -20 -52 -35 -88 -56 -137 -57 -140 -34 -140 14 0
25 10 32 30 11 28 14 30 67 30 53 0 56 -2 67 -30 8 -20 18 -30 32 -30 12 0 21
2 21 4 0 2 -20 53 -45 112 -25 60 -45 115 -45 122 0 22 -50 14 -60 -10z m44
-60 c32 -77 32 -78 -14 -78 -45 0 -45 1 -17 70 6 14 10 28 9 33 -5 20 11 3 22
-25z"/>
<path d="M1240 465 l0 -126 73 3 c83 3 97 22 20 26 l-53 3 1 77 c1 139 1 142
-21 142 -19 0 -20 -7 -20 -125z"/>
<path d="M1402 578 c3 -7 22 -15 44 -18 l39 -5 0 -107 c0 -102 1 -108 20 -108
19 0 20 6 20 108 l0 107 40 5 c76 10 41 25 -63 28 -81 2 -103 0 -100 -10z"/>
<path d="M1670 465 c0 -118 1 -125 20 -125 18 0 20 7 20 55 l0 56 63 -3 62 -3
1 -40 c3 -64 3 -65 24 -65 19 0 20 7 20 125 0 118 -1 125 -20 125 -21 0 -24
-9 -21 -72 l1 -38 -65 0 -65 0 0 55 c0 48 -2 55 -20 55 -19 0 -20 -7 -20 -125z"/>
<path d="M1953 583 c3 -5 23 -38 46 -76 33 -55 41 -76 41 -117 0 -43 3 -50 20
-50 21 0 23 4 21 60 -1 25 11 56 44 110 37 61 43 76 29 78 -21 5 -27 -2 -62
-67 l-30 -53 -33 61 c-26 48 -39 61 -57 61 -13 0 -21 -3 -19 -7z"/>
<path d="M2350 465 l0 -126 73 3 c83 3 97 22 20 26 l-53 3 0 110 c0 102 -1
109 -20 109 -19 0 -20 -7 -20 -125z"/>
<path d="M2621 568 c-5 -13 -21 -52 -36 -88 -56 -137 -57 -140 -34 -140 14 0
25 10 32 30 11 28 14 30 67 30 53 0 56 -2 67 -30 8 -20 18 -30 32 -30 12 0 21
1 21 3 0 1 -22 56 -48 122 -39 97 -53 121 -70 123 -15 2 -25 -4 -31 -20z m37
-35 c-1 -8 4 -24 23 -71 13 -32 13 -32 -32 -32 -35 0 -40 3 -34 18 3 9 12 34
18 55 7 20 15 37 19 37 5 0 7 -3 6 -7z"/>
<path d="M2840 465 l0 -125 64 0 c80 0 116 23 116 76 0 27 -4 35 -25 40 l-25
6 21 17 c29 23 28 69 -1 93 -16 13 -39 18 -86 18 l-64 0 0 -125z m116 87 c37
-25 10 -72 -42 -72 -28 0 -30 3 -32 40 -3 39 -2 40 30 40 18 0 38 -4 44 -8z
m8 -108 c19 -7 21 -45 4 -62 -7 -7 -28 -12 -48 -12 -35 0 -36 1 -38 40 -3 39
-2 40 32 40 19 0 41 -3 50 -6z"/>
<path d="M3126 569 c-33 -26 -34 -68 -3 -97 12 -11 24 -21 27 -21 3 1 17 -2
32 -6 32 -8 42 -29 27 -57 -9 -16 -17 -19 -42 -14 -56 11 -70 11 -74 -1 -6
-17 63 -36 103 -28 28 5 39 13 49 39 22 51 10 74 -51 101 -40 18 -54 29 -54
44 0 26 45 39 73 22 29 -18 50 5 23 25 -28 20 -79 17 -110 -7z"/>
<path d="M899 188 c-1 -2 -2 -40 -3 -85 l-2 -83 53 0 c29 0 53 5 53 10 0 6
-18 10 -40 10 -36 0 -40 3 -40 25 0 21 5 25 30 25 17 0 30 5 30 10 0 6 -13 10
-30 10 -27 0 -30 3 -30 30 0 28 2 30 40 30 22 0 40 5 40 10 0 8 -98 15 -101 8z"/>
<path d="M1110 168 c-56 -142 -58 -148 -45 -148 8 0 17 9 20 20 9 29 81 29 90
0 3 -11 12 -20 19 -20 10 0 5 24 -17 85 -32 86 -50 104 -67 63z m37 -53 c11
-34 11 -35 -17 -35 -28 0 -28 1 -17 35 6 19 13 35 17 35 4 0 11 -16 17 -35z"/>
<path d="M1240 180 c0 -5 11 -10 25 -10 24 0 25 -2 25 -76 0 -56 3 -75 13 -71
8 2 12 27 12 75 l-1 72 28 0 c15 0 28 5 28 10 0 6 -28 10 -65 10 -37 0 -65 -4
-65 -10z"/>
<path d="M1529 185 c0 -3 -1 -25 -1 -50 0 -99 2 -115 15 -115 9 0 12 11 9 35
l-4 35 47 0 c38 0 46 -3 44 -17 -3 -36 1 -53 14 -53 17 0 17 162 -1 168 -8 2
-12 -9 -12 -37 l0 -41 -45 0 -45 0 0 40 c0 22 -4 40 -10 40 -5 0 -10 -2 -11
-5z"/>
<path d="M1748 143 c-1 -27 -2 -65 0 -85 l3 -38 50 0 c27 0 49 5 49 10 0 6
-18 10 -40 10 -36 0 -40 3 -40 25 0 22 4 25 36 25 21 0 33 4 29 10 -3 6 -19
10 -36 10 -26 0 -29 3 -29 30 0 28 2 30 40 30 22 0 40 5 40 10 0 6 -22 10 -49
10 l-49 0 -4 -47z"/>
<path d="M1962 168 c-6 -13 -22 -51 -36 -85 -19 -48 -21 -63 -11 -63 8 0 17 9
20 20 9 29 81 29 90 0 3 -11 13 -20 21 -20 11 0 10 9 -6 50 -52 133 -57 139
-78 98z m32 -86 c-36 -9 -43 1 -27 38 l15 35 13 -35 c10 -29 10 -36 -1 -38z"/>
<path d="M2123 105 l1 -85 48 0 c26 0 48 5 48 10 0 6 -16 10 -35 10 -34 0 -35
1 -36 43 -1 23 0 57 1 75 1 22 -3 32 -13 32 -12 0 -14 -17 -14 -85z"/>
<path d="M2245 180 c-4 -6 7 -10 25 -10 29 0 31 -2 30 -32 -4 -77 0 -120 12
-116 8 3 12 28 11 76 l0 72 29 0 c17 0 27 4 23 10 -3 6 -33 10 -65 10 -32 0
-62 -4 -65 -10z"/>
<path d="M2443 105 c1 -64 4 -85 14 -85 8 0 13 6 12 12 -6 50 0 58 44 58 44 0
44 0 42 -35 -2 -24 1 -35 11 -35 11 0 14 19 14 85 0 64 -3 85 -13 85 -9 0 -13
-13 -13 -37 1 -38 1 -38 -41 -41 l-43 -3 0 40 c0 28 -4 41 -14 41 -11 0 -14
-19 -13 -85z"/>
<path d="M2666 148 c15 -23 29 -62 32 -85 6 -53 27 -57 28 -5 0 22 11 54 28
80 15 24 25 47 21 50 -7 8 -30 -16 -49 -52 l-14 -28 -21 41 c-12 22 -28 41
-36 41 -12 0 -9 -10 11 -42z"/>
</g>
</svg>
